<svg width="173" height="38" viewBox="0 0 173 38" fill="none" xmlns="http://www.w3.org/2000/svg">
<path d="M0.886719 29V25.582L3.91406 24.9961V4.58594L0.886719 4V0.5625H3.91406H12.3516L20.1055 20.3867H20.2227L27.7227 0.5625H39.207V4L36.1602 4.58594V24.9961L39.207 25.582V29H27.4297V25.582L30.6133 24.9961V19.5469L30.7109 6.71484L30.5938 6.69531L22.0977 28.6094H17.7812L9.08984 6.87109L8.97266 6.89062L9.30469 18.9609V24.9961L12.6641 25.582V29H0.886719ZM47.2344 37.5352C46.7396 37.5352 46.2122 37.4896 45.6523 37.3984C45.1055 37.3203 44.5846 37.2096 44.0898 37.0664L44.7344 32.8867C44.9818 32.9388 45.2552 32.9779 45.5547 33.0039C45.8542 33.0299 46.1146 33.043 46.3359 33.043C47.1562 33.043 47.8659 32.8281 48.4648 32.3984C49.0638 31.9688 49.5 31.3503 49.7734 30.543L50.2422 29.2344L43.1719 11.6758L40.5742 11.3047V7.86719H51.7852V11.3047L49.207 11.6953L52.5273 21.0117L52.9375 22.1641H53.0547L56.9805 11.6562L54.4609 11.3047V7.86719H64.9102V11.3047L62.5273 11.6367L54.4609 32.1445C54.0703 33.1211 53.569 34.013 52.957 34.8203C52.3581 35.6406 51.5898 36.2982 50.6523 36.793C49.7279 37.2878 48.5885 37.5352 47.2344 37.5352ZM66.3555 29V25.582L69.3828 24.9961V4.58594L66.3555 4V0.5625H69.3828H75.1641L87.5469 20.2891L87.6641 20.2695V4.58594L84.0312 4V0.5625H92.7617H95.8086V4L92.7617 4.58594V29H87.2539L74.5977 9.46875L74.4805 9.48828V24.9961L78.1328 25.582V29H66.3555ZM107.898 29.4102C105.815 29.4102 104.025 28.9544 102.527 28.043C101.03 27.1315 99.8841 25.8685 99.0898 24.2539C98.2956 22.6263 97.8984 20.7578 97.8984 18.6484V18.2383C97.8984 16.1419 98.2956 14.2865 99.0898 12.6719C99.8841 11.0443 101.023 9.77474 102.508 8.86328C104.005 7.9388 105.789 7.47656 107.859 7.47656C109.956 7.47656 111.746 7.9388 113.23 8.86328C114.715 9.77474 115.854 11.0378 116.648 12.6523C117.443 14.2669 117.84 16.1289 117.84 18.2383V18.6484C117.84 20.7578 117.443 22.6263 116.648 24.2539C115.854 25.8685 114.715 27.1315 113.23 28.043C111.746 28.9544 109.969 29.4102 107.898 29.4102ZM107.898 25.0352C108.888 25.0352 109.695 24.7682 110.32 24.2344C110.945 23.7005 111.408 22.9583 111.707 22.0078C112.007 21.0443 112.156 19.9245 112.156 18.6484V18.2383C112.156 16.9883 112.007 15.888 111.707 14.9375C111.408 13.974 110.939 13.2253 110.301 12.6914C109.676 12.1445 108.862 11.8711 107.859 11.8711C106.883 11.8711 106.076 12.1445 105.438 12.6914C104.799 13.2253 104.331 13.974 104.031 14.9375C103.745 15.888 103.602 16.9883 103.602 18.2383V18.6484C103.602 19.9245 103.745 21.0443 104.031 22.0078C104.331 22.9714 104.799 23.7201 105.438 24.2539C106.076 24.7747 106.896 25.0352 107.898 25.0352ZM128.543 29.4102C126.577 29.4102 125.06 28.8698 123.992 27.7891C122.938 26.7083 122.41 24.9961 122.41 22.6523V11.8711H119.5V7.86719H122.41V2.69141H128.094V7.86719H131.98V11.8711H128.094V22.6328C128.094 23.4531 128.263 24.0391 128.602 24.3906C128.953 24.7422 129.428 24.918 130.027 24.918C130.353 24.918 130.691 24.8984 131.043 24.8594C131.408 24.8073 131.72 24.7552 131.98 24.7031L132.469 28.8242C131.883 28.9935 131.245 29.1302 130.555 29.2344C129.878 29.3516 129.207 29.4102 128.543 29.4102ZM144.266 29.4102C142.247 29.4102 140.483 28.9674 138.973 28.082C137.462 27.1836 136.29 25.9531 135.457 24.3906C134.637 22.8281 134.227 21.0443 134.227 19.0391V18.2578C134.227 16.1615 134.617 14.306 135.398 12.6914C136.18 11.0638 137.28 9.78776 138.699 8.86328C140.132 7.92578 141.818 7.46354 143.758 7.47656C145.672 7.47656 147.28 7.85417 148.582 8.60938C149.884 9.36458 150.874 10.4518 151.551 11.8711C152.228 13.2904 152.566 15.0091 152.566 17.0273V20.1328H140.145L140.105 20.25C140.184 21.1745 140.411 22.0013 140.789 22.7305C141.18 23.4466 141.727 24.013 142.43 24.4297C143.133 24.8333 143.986 25.0352 144.988 25.0352C146.03 25.0352 147 24.9049 147.898 24.6445C148.81 24.3711 149.695 23.974 150.555 23.4531L152.098 26.9688C151.225 27.6719 150.125 28.2578 148.797 28.7266C147.482 29.1823 145.971 29.4102 144.266 29.4102ZM140.184 16.3633H147.234V15.8555C147.234 14.9961 147.117 14.2604 146.883 13.6484C146.661 13.0234 146.297 12.5417 145.789 12.2031C145.294 11.8646 144.65 11.6953 143.855 11.6953C143.1 11.6953 142.462 11.8971 141.941 12.3008C141.421 12.6914 141.01 13.2318 140.711 13.9219C140.424 14.612 140.229 15.3932 140.125 16.2656L140.184 16.3633ZM164.305 29.4102C162.729 29.4102 161.258 29.2604 159.891 28.9609C158.536 28.6615 157.234 28.2318 155.984 27.6719L155.926 21.6953H159.891L160.652 24.7422C161.095 24.9635 161.577 25.1393 162.098 25.2695C162.632 25.3997 163.237 25.4648 163.914 25.4648C165.19 25.4648 166.089 25.2565 166.609 24.8398C167.13 24.4232 167.391 23.9023 167.391 23.2773C167.391 22.6914 167.111 22.1771 166.551 21.7344C166.004 21.2786 164.904 20.8815 163.25 20.543C160.75 20.0221 158.908 19.2148 157.723 18.1211C156.538 17.0273 155.945 15.6276 155.945 13.9219C155.945 12.75 156.238 11.6823 156.824 10.7188C157.423 9.75521 158.328 8.98047 159.539 8.39453C160.763 7.80859 162.326 7.51562 164.227 7.51562C165.815 7.51562 167.267 7.67188 168.582 7.98438C169.91 8.28385 171.023 8.68099 171.922 9.17578L171.98 14.957H168.035L167.43 12.1836C167.078 11.9232 166.661 11.7279 166.18 11.5977C165.711 11.4674 165.177 11.4023 164.578 11.4023C163.576 11.4023 162.807 11.6042 162.273 12.0078C161.74 12.4115 161.473 12.9323 161.473 13.5703C161.473 13.9349 161.564 14.2734 161.746 14.5859C161.941 14.8984 162.319 15.1914 162.879 15.4648C163.439 15.7383 164.253 15.9987 165.32 16.2461C167.938 16.8451 169.845 17.6458 171.043 18.6484C172.241 19.638 172.84 21.0312 172.84 22.8281C172.84 24.7943 172.124 26.3828 170.691 27.5938C169.272 28.8047 167.143 29.4102 164.305 29.4102Z" fill="#FF9000"/>
</svg>
